<svg width="31" height="40" viewBox="0 0 31 40" fill="none" xmlns="http://www.w3.org/2000/svg">
<path d="M30.4976 15.09H17.8798L6.83874 26.921C4.96243 25.2013 3.58325 22.9434 2.86333 20.4128C2.1434 17.8822 2.11265 15.1839 2.77469 12.6351C3.43673 10.0864 4.76404 7.79314 6.60061 6.02493C8.43719 4.25672 10.7067 3.08705 13.1423 2.65342C13.7321 2.55236 14.2694 2.23014 14.6583 1.74418C15.0471 1.25824 15.2624 0.640122 15.2656 0C12.1601 0.00193668 9.12886 1.01812 6.57615 2.9131C4.02339 4.80807 2.07032 7.4918 0.977325 10.6065C-0.115677 13.7212 -0.29669 17.1189 0.458419 20.3467C1.21353 23.5744 2.86888 26.4789 5.20381 28.6728L0.320224 33.9028L1.93128 35.6263L7.04046 30.1459L8.71789 28.3514L18.8221 17.5273H28.1964C28.0453 19.4009 27.5417 21.2224 26.7162 22.882C25.8906 24.5416 24.7601 26.005 23.3928 27.184C22.0254 28.363 20.4494 29.2332 18.7598 29.7422C17.0703 30.2513 15.302 30.3886 13.5616 30.1459L20.7809 22.4019H25.8741V19.9646H19.8439L17.8798 22.0692L10.9659 29.4777L9.18766 31.3774L3.57683 37.3924L5.18788 39.1159L11.5923 32.2505C13.7537 32.8225 16.0056 32.8818 18.1907 32.4239C20.3757 31.9661 22.441 31.0023 24.2421 29.6C26.0432 28.1977 27.5368 26.3907 28.6182 24.3054C29.6996 22.2201 30.3428 19.9068 30.5029 17.5273C30.5294 17.1463 30.5427 16.7566 30.5427 16.3642C30.5427 15.9717 30.5214 15.5081 30.4976 15.09Z" fill="#773DD3"/>
</svg>
